# xmcd
#
# Track frame offsets:
#  150
#  18290
#  34110
#  52980
#  71030
#  92545
#  115205
#  133510
#  151302
#  172595
#  188907
#  205870
#
# Disc length: 3065 seconds
#
# Revision: 0
# Processed by: cddbd v1.5.1PL0 Copyright (c) Steve Scherf et al.
# Submitted via: AltoMP3_Maker 3.0
#
DISCID=920bf70c
DTITLE=Cimilli Ýbo - Cayýr Cayýr Yanayi
DYEAR=1900
DGENRE=
TTITLE0=Assýnlar bedenimi
TTITLE1=Yanar Döner Melahat
TTITLE2=Cayýr Cayýr Yanayi
TTITLE3=Kýz sen ne havalisin
TTITLE4=Böylede Yar olur Mu
TTITLE5=Cimil
TTITLE6=Gurbet Kuþu
TTITLE7=Yabani Arý Gibi
TTITLE8=Yerum O Muncirlari
TTITLE9=Tek Çift
TTITLE10=Kalp Yerinde Taþ Mý Var
TTITLE11=Atma Türkü (Horon)
EXTD=
EXTT0=
EXTT1=
EXTT2=
EXTT3=
EXTT4=
EXTT5=
EXTT6=
EXTT7=
EXTT8=
EXTT9=
EXTT10=
EXTT11=
PLAYORDER=
